<svg xmlns="http://www.w3.org/2000/svg" width="1200" height="760" viewBox="0 0 1200 760" role="img" aria-label="Plant Shop screenshot">
  <rect width="1200" height="760" fill="#f5f7fb"/>
  <rect x="40" y="30" width="1120" height="700" rx="14" fill="#ffffff" stroke="#d9e1ee"/>
  <text x="80" y="95" font-family="Arial, sans-serif" font-size="42" font-weight="700" fill="#1f2937">Plant Shop</text>

  <rect x="80" y="130" width="1040" height="150" rx="10" fill="#f8fafc" stroke="#cfd8e3"/>
  <text x="100" y="168" font-family="Arial, sans-serif" font-size="28" font-weight="600" fill="#111827">Add a Plant</text>
  <rect x="100" y="185" width="240" height="42" rx="8" fill="#ffffff" stroke="#cfd8e3"/>
  <text x="112" y="212" font-family="Arial, sans-serif" font-size="16" fill="#6b7280">Plant name</text>
  <rect x="360" y="185" width="360" height="42" rx="8" fill="#ffffff" stroke="#cfd8e3"/>
  <text x="372" y="212" font-family="Arial, sans-serif" font-size="16" fill="#6b7280">Image URL</text>
  <rect x="740" y="185" width="130" height="42" rx="8" fill="#ffffff" stroke="#cfd8e3"/>
  <text x="752" y="212" font-family="Arial, sans-serif" font-size="16" fill="#6b7280">Price</text>
  <rect x="890" y="185" width="190" height="42" rx="8" fill="#2563eb"/>
  <text x="950" y="212" font-family="Arial, sans-serif" font-size="16" font-weight="600" fill="#ffffff">Add Plant</text>

  <text x="80" y="330" font-family="Arial, sans-serif" font-size="22" fill="#111827">Search plants by name:</text>
  <rect x="320" y="302" width="420" height="44" rx="8" fill="#ffffff" stroke="#cfd8e3"/>
  <text x="335" y="330" font-family="Arial, sans-serif" font-size="16" fill="#6b7280">monstera</text>

  <text x="80" y="390" font-family="Arial, sans-serif" font-size="30" font-weight="700" fill="#111827">All Plants</text>

  <rect x="80" y="420" width="330" height="260" rx="12" fill="#ffffff" stroke="#cfd8e3"/>
  <rect x="100" y="445" width="290" height="130" rx="10" fill="#d1fae5"/>
  <text x="100" y="605" font-family="Arial, sans-serif" font-size="24" font-weight="600" fill="#111827">Monstera</text>
  <text x="100" y="633" font-family="Arial, sans-serif" font-size="18" fill="#374151">Price: $25.00</text>
  <text x="100" y="657" font-family="Arial, sans-serif" font-size="18" fill="#065f46">Status: Available</text>

  <rect x="440" y="420" width="330" height="260" rx="12" fill="#ffffff" stroke="#cfd8e3"/>
  <rect x="460" y="445" width="290" height="130" rx="10" fill="#fee2e2"/>
  <text x="460" y="605" font-family="Arial, sans-serif" font-size="24" font-weight="600" fill="#111827">Snake Plant</text>
  <text x="460" y="633" font-family="Arial, sans-serif" font-size="18" fill="#374151">Price: $18.00</text>
  <text x="460" y="657" font-family="Arial, sans-serif" font-size="18" fill="#991b1b">Status: Sold Out</text>

  <rect x="800" y="420" width="330" height="260" rx="12" fill="#ffffff" stroke="#cfd8e3"/>
  <rect x="820" y="445" width="290" height="130" rx="10" fill="#dbeafe"/>
  <text x="820" y="605" font-family="Arial, sans-serif" font-size="24" font-weight="600" fill="#111827">Fiddle Leaf Fig</text>
  <text x="820" y="633" font-family="Arial, sans-serif" font-size="18" fill="#374151">Price: $34.00</text>
  <text x="820" y="657" font-family="Arial, sans-serif" font-size="18" fill="#065f46">Status: Available</text>
</svg>
